<svg xmlns="http://www.w3.org/2000/svg" viewBox="0 0 2360 800">
  <g fill="#20252C">
    <g>
      <circle cx="1016.0" cy="90.0" r="45.2"/>
      <circle cx="1098.6" cy="90.0" r="19.6"/>
      <circle cx="1181.2" cy="90.0" r="32.4"/>
      <circle cx="1263.8" cy="90.0" r="19.6"/>
      <circle cx="1346.4" cy="90.0" r="45.2"/>
      <circle cx="1016.0" cy="173.2" r="19.6"/>
      <circle cx="1098.6" cy="173.2" r="32.4"/>
      <circle cx="1181.2" cy="173.2" r="19.6"/>
      <circle cx="1263.8" cy="173.2" r="32.4"/>
      <circle cx="1346.4" cy="173.2" r="19.6"/>
      <circle cx="1016.0" cy="256.4" r="32.4"/>
      <circle cx="1098.6" cy="256.4" r="19.6"/>
      <circle cx="1181.2" cy="256.4" r="45.2"/>
      <circle cx="1263.8" cy="256.4" r="19.6"/>
      <circle cx="1346.4" cy="256.4" r="32.4"/>
      <circle cx="1016.0" cy="339.6" r="19.6"/>
      <circle cx="1098.6" cy="339.6" r="32.4"/>
      <circle cx="1263.8" cy="339.6" r="32.4"/>
      <circle cx="1346.4" cy="339.6" r="19.6"/>
      <circle cx="1016.0" cy="422.8" r="45.2"/>
      <circle cx="1098.6" cy="422.8" r="19.6"/>
      <circle cx="1181.2" cy="422.8" r="32.4"/>
      <circle cx="1263.8" cy="422.8" r="19.6"/>
      <circle cx="1346.4" cy="422.8" r="45.2"/>
    </g>
    <path d="M 1172.0 601.0 L 1168.0 606.0 L 1168.0 613.0 L 1164.0 618.0 L 1164.0 669.0 L 1165.0 671.0 L 1167.0 672.0 L 1168.0 677.0 L 1170.0 679.0 L 1173.0 679.0 L 1175.0 677.0 L 1175.0 614.0 L 1178.0 611.0 L 1181.0 611.0 L 1184.0 614.0 L 1184.0 725.0 L 1185.0 727.0 L 1186.0 727.0 L 1188.0 730.0 L 1196.0 737.0 L 1196.0 738.0 L 1198.0 739.0 L 1209.0 739.0 L 1212.0 742.0 L 1212.0 745.0 L 1209.0 748.0 L 1198.0 748.0 L 1197.0 751.0 L 1202.0 755.0 L 1273.0 755.0 L 1275.0 754.0 L 1279.0 749.0 L 1279.0 738.0 L 1278.0 736.0 L 1269.0 728.0 L 1202.0 728.0 L 1196.0 723.0 L 1195.0 721.0 L 1195.0 610.0 L 1194.0 608.0 L 1192.0 607.0 L 1191.0 602.0 L 1189.0 600.0 L 1174.0 600.0 Z M 200.0 742.0 L 206.0 755.0 L 221.0 755.0 L 230.0 747.0 L 232.0 740.0 L 246.0 723.0 L 252.0 708.0 L 258.0 703.0 L 260.0 696.0 L 274.0 679.0 L 280.0 664.0 L 294.0 647.0 L 300.0 632.0 L 309.0 627.0 L 316.0 634.0 L 316.0 725.0 L 320.0 730.0 L 320.0 737.0 L 332.0 750.0 L 342.0 755.0 L 367.0 754.0 L 382.0 739.0 L 383.0 730.0 L 387.0 725.0 L 387.0 634.0 L 383.0 629.0 L 380.0 629.0 L 376.0 634.0 L 376.0 729.0 L 373.0 732.0 L 367.0 729.0 L 367.0 630.0 L 372.0 620.0 L 380.0 612.0 L 397.0 607.0 L 407.0 612.0 L 415.0 620.0 L 416.0 633.0 L 420.0 638.0 L 420.0 753.0 L 425.0 755.0 L 427.0 753.0 L 427.0 622.0 L 422.0 612.0 L 415.0 605.0 L 405.0 600.0 L 378.0 600.0 L 365.0 612.0 L 364.0 621.0 L 360.0 626.0 L 360.0 717.0 L 356.0 725.0 L 350.0 728.0 L 343.0 721.0 L 343.0 622.0 L 338.0 612.0 L 331.0 605.0 L 321.0 600.0 L 298.0 600.0 L 288.0 605.0 L 269.0 628.0 L 251.0 663.0 L 241.0 672.0 L 235.0 687.0 L 221.0 704.0 L 215.0 719.0 L 209.0 724.0 Z M 175.0 601.0 L 173.0 600.0 L 158.0 600.0 L 156.0 602.0 L 155.0 607.0 L 111.0 651.0 L 104.0 653.0 L 93.0 664.0 L 92.0 669.0 L 89.0 672.0 L 88.0 677.0 L 84.0 682.0 L 84.0 749.0 L 88.0 754.0 L 93.0 755.0 L 95.0 753.0 L 95.0 682.0 L 98.0 679.0 L 100.0 672.0 L 138.0 635.0 L 141.0 635.0 L 144.0 638.0 L 143.0 643.0 L 113.0 672.0 L 112.0 681.0 L 144.0 714.0 L 144.0 717.0 L 141.0 720.0 L 134.0 720.0 L 132.0 722.0 L 133.0 727.0 L 160.0 754.0 L 162.0 755.0 L 173.0 755.0 L 178.0 751.0 L 179.0 749.0 L 179.0 734.0 L 178.0 732.0 L 127.0 681.0 L 128.0 672.0 L 178.0 623.0 L 179.0 621.0 L 179.0 606.0 Z M 70.0 600.0 L 68.0 602.0 L 68.0 753.0 L 70.0 755.0 L 73.0 755.0 L 75.0 753.0 L 75.0 662.0 L 76.0 661.0 L 76.0 660.0 L 77.0 659.0 L 78.0 659.0 L 78.0 658.0 L 79.0 657.0 L 79.0 606.0 L 78.0 605.0 L 78.0 604.0 L 77.0 604.0 L 75.0 602.0 L 75.0 601.0 L 74.0 601.0 L 73.0 600.0 Z M 1431.0 601.0 L 1426.0 600.0 L 1423.0 597.0 L 1420.0 597.0 L 1417.0 600.0 L 1412.0 601.0 L 1408.0 606.0 L 1408.0 693.0 L 1404.0 698.0 L 1404.0 705.0 L 1401.0 708.0 L 1399.0 715.0 L 1391.0 723.0 L 1386.0 724.0 L 1381.0 728.0 L 1354.0 728.0 L 1351.0 725.0 L 1344.0 723.0 L 1332.0 711.0 L 1331.0 702.0 L 1327.0 697.0 L 1327.0 602.0 L 1325.0 600.0 L 1322.0 600.0 L 1317.0 604.0 L 1316.0 606.0 L 1316.0 693.0 L 1313.0 696.0 L 1310.0 696.0 L 1307.0 693.0 L 1307.0 690.0 L 1305.0 688.0 L 1302.0 688.0 L 1300.0 690.0 L 1300.0 705.0 L 1304.0 710.0 L 1304.0 717.0 L 1307.0 720.0 L 1309.0 727.0 L 1319.0 736.0 L 1320.0 741.0 L 1322.0 743.0 L 1327.0 744.0 L 1332.0 750.0 L 1337.0 751.0 L 1342.0 755.0 L 1349.0 755.0 L 1354.0 759.0 L 1381.0 759.0 L 1386.0 755.0 L 1393.0 755.0 L 1396.0 752.0 L 1403.0 750.0 L 1426.0 727.0 L 1427.0 722.0 L 1431.0 717.0 L 1431.0 710.0 L 1435.0 705.0 L 1435.0 606.0 Z M 1472.0 654.0 L 1472.0 669.0 L 1474.0 671.0 L 1481.0 671.0 L 1484.0 668.0 L 1489.0 667.0 L 1492.0 664.0 L 1497.0 663.0 L 1500.0 660.0 L 1505.0 659.0 L 1510.0 655.0 L 1521.0 655.0 L 1526.0 651.0 L 1553.0 651.0 L 1558.0 655.0 L 1565.0 655.0 L 1568.0 658.0 L 1568.0 689.0 L 1564.0 694.0 L 1564.0 717.0 L 1568.0 722.0 L 1568.0 737.0 L 1572.0 742.0 L 1572.0 749.0 L 1582.0 759.0 L 1609.0 759.0 L 1612.0 756.0 L 1617.0 755.0 L 1619.0 753.0 L 1620.0 748.0 L 1623.0 745.0 L 1623.0 738.0 L 1627.0 733.0 L 1627.0 678.0 L 1623.0 673.0 L 1623.0 662.0 L 1628.0 656.0 L 1633.0 655.0 L 1638.0 651.0 L 1665.0 651.0 L 1670.0 655.0 L 1681.0 655.0 L 1684.0 658.0 L 1689.0 659.0 L 1692.0 662.0 L 1697.0 663.0 L 1700.0 666.0 L 1707.0 668.0 L 1712.0 674.0 L 1715.0 674.0 L 1719.0 669.0 L 1719.0 654.0 L 1716.0 651.0 L 1714.0 644.0 L 1695.0 625.0 L 1688.0 623.0 L 1683.0 617.0 L 1678.0 616.0 L 1675.0 613.0 L 1670.0 612.0 L 1665.0 608.0 L 1658.0 608.0 L 1655.0 605.0 L 1650.0 604.0 L 1645.0 600.0 L 1630.0 600.0 L 1625.0 596.0 L 1566.0 596.0 L 1561.0 600.0 L 1550.0 600.0 L 1545.0 604.0 L 1538.0 604.0 L 1535.0 607.0 L 1530.0 608.0 L 1527.0 611.0 L 1522.0 612.0 L 1519.0 615.0 L 1514.0 616.0 L 1511.0 619.0 L 1504.0 621.0 L 1495.0 631.0 L 1488.0 633.0 L 1481.0 640.0 L 1479.0 647.0 Z M 1046.0 596.0 L 1041.0 600.0 L 1034.0 600.0 L 1031.0 603.0 L 1024.0 605.0 L 1015.0 615.0 L 1008.0 617.0 L 1001.0 624.0 L 1000.0 629.0 L 997.0 632.0 L 996.0 637.0 L 993.0 640.0 L 992.0 645.0 L 988.0 650.0 L 988.0 661.0 L 984.0 666.0 L 984.0 681.0 L 994.0 691.0 L 1007.0 690.0 L 1011.0 685.0 L 1011.0 678.0 L 1015.0 673.0 L 1015.0 662.0 L 1018.0 659.0 L 1019.0 654.0 L 1022.0 651.0 L 1024.0 644.0 L 1036.0 632.0 L 1041.0 631.0 L 1046.0 627.0 L 1053.0 627.0 L 1058.0 623.0 L 1073.0 623.0 L 1078.0 627.0 L 1085.0 627.0 L 1088.0 630.0 L 1095.0 632.0 L 1107.0 644.0 L 1109.0 651.0 L 1115.0 656.0 L 1117.0 675.0 L 1120.0 678.0 L 1125.0 679.0 L 1127.0 677.0 L 1127.0 662.0 L 1123.0 657.0 L 1123.0 650.0 L 1119.0 645.0 L 1119.0 642.0 L 1122.0 639.0 L 1125.0 639.0 L 1128.0 642.0 L 1128.0 645.0 L 1132.0 650.0 L 1132.0 657.0 L 1136.0 662.0 L 1136.0 693.0 L 1132.0 698.0 L 1132.0 705.0 L 1129.0 708.0 L 1127.0 715.0 L 1103.0 739.0 L 1098.0 740.0 L 1093.0 744.0 L 1082.0 744.0 L 1077.0 748.0 L 1066.0 748.0 L 1061.0 752.0 L 1061.0 755.0 L 1066.0 759.0 L 1081.0 759.0 L 1086.0 755.0 L 1093.0 755.0 L 1098.0 751.0 L 1107.0 750.0 L 1134.0 723.0 L 1135.0 718.0 L 1138.0 715.0 L 1139.0 710.0 L 1143.0 705.0 L 1143.0 694.0 L 1147.0 689.0 L 1147.0 666.0 L 1143.0 661.0 L 1143.0 650.0 L 1140.0 647.0 L 1139.0 642.0 L 1136.0 639.0 L 1134.0 632.0 L 1124.0 623.0 L 1123.0 618.0 L 1121.0 616.0 L 1116.0 615.0 L 1107.0 605.0 L 1102.0 604.0 L 1097.0 600.0 L 1086.0 600.0 L 1081.0 596.0 Z M 866.0 600.0 L 849.0 616.0 L 848.0 621.0 L 840.0 634.0 L 840.0 645.0 L 842.0 647.0 L 849.0 647.0 L 851.0 645.0 L 851.0 634.0 L 854.0 631.0 L 855.0 626.0 L 858.0 623.0 L 861.0 623.0 L 864.0 626.0 L 864.0 629.0 L 860.0 634.0 L 860.0 657.0 L 872.0 670.0 L 925.0 671.0 L 928.0 674.0 L 928.0 677.0 L 925.0 680.0 L 886.0 680.0 L 884.0 682.0 L 884.0 689.0 L 886.0 691.0 L 933.0 691.0 L 944.0 702.0 L 944.0 717.0 L 939.0 723.0 L 934.0 724.0 L 929.0 728.0 L 854.0 728.0 L 848.0 734.0 L 848.0 749.0 L 854.0 755.0 L 929.0 755.0 L 931.0 753.0 L 929.0 748.0 L 870.0 748.0 L 867.0 745.0 L 867.0 742.0 L 870.0 739.0 L 929.0 739.0 L 934.0 735.0 L 941.0 735.0 L 955.0 721.0 L 955.0 702.0 L 958.0 699.0 L 961.0 699.0 L 964.0 702.0 L 964.0 709.0 L 968.0 714.0 L 971.0 714.0 L 974.0 711.0 L 975.0 702.0 L 971.0 697.0 L 971.0 690.0 L 968.0 687.0 L 966.0 680.0 L 955.0 669.0 L 946.0 668.0 L 941.0 664.0 L 926.0 664.0 L 921.0 660.0 L 876.0 659.0 L 871.0 653.0 L 871.0 634.0 L 882.0 627.0 L 949.0 627.0 L 959.0 621.0 L 962.0 612.0 L 955.0 601.0 L 946.0 600.0 L 941.0 596.0 L 886.0 596.0 L 881.0 600.0 Z M 654.0 596.0 L 651.0 599.0 L 646.0 600.0 L 643.0 603.0 L 628.0 609.0 L 609.0 628.0 L 607.0 635.0 L 601.0 640.0 L 600.0 649.0 L 596.0 654.0 L 596.0 701.0 L 599.0 704.0 L 600.0 709.0 L 603.0 712.0 L 609.0 727.0 L 624.0 742.0 L 631.0 744.0 L 636.0 750.0 L 641.0 751.0 L 646.0 755.0 L 657.0 755.0 L 662.0 759.0 L 689.0 759.0 L 694.0 755.0 L 701.0 755.0 L 704.0 752.0 L 719.0 746.0 L 724.0 740.0 L 729.0 739.0 L 734.0 735.0 L 736.0 728.0 L 746.0 719.0 L 747.0 714.0 L 751.0 709.0 L 751.0 702.0 L 755.0 697.0 L 755.0 674.0 L 753.0 672.0 L 682.0 672.0 L 679.0 675.0 L 674.0 676.0 L 672.0 678.0 L 672.0 693.0 L 678.0 699.0 L 729.0 699.0 L 734.0 695.0 L 733.0 692.0 L 730.0 692.0 L 727.0 689.0 L 727.0 686.0 L 730.0 683.0 L 741.0 683.0 L 744.0 686.0 L 744.0 697.0 L 740.0 702.0 L 740.0 709.0 L 733.0 716.0 L 731.0 723.0 L 723.0 731.0 L 716.0 733.0 L 711.0 739.0 L 706.0 740.0 L 701.0 744.0 L 694.0 744.0 L 689.0 748.0 L 662.0 748.0 L 659.0 745.0 L 659.0 742.0 L 662.0 739.0 L 677.0 739.0 L 679.0 737.0 L 678.0 732.0 L 673.0 728.0 L 658.0 728.0 L 655.0 725.0 L 640.0 719.0 L 636.0 715.0 L 634.0 708.0 L 628.0 703.0 L 627.0 694.0 L 623.0 689.0 L 623.0 666.0 L 627.0 661.0 L 627.0 654.0 L 630.0 651.0 L 632.0 644.0 L 640.0 636.0 L 645.0 635.0 L 648.0 632.0 L 653.0 631.0 L 666.0 623.0 L 681.0 623.0 L 687.0 617.0 L 687.0 602.0 L 683.0 597.0 Z M 571.0 597.0 L 482.0 596.0 L 479.0 599.0 L 472.0 601.0 L 469.0 604.0 L 467.0 611.0 L 459.0 619.0 L 454.0 620.0 L 449.0 624.0 L 448.0 753.0 L 450.0 755.0 L 453.0 755.0 L 458.0 751.0 L 465.0 751.0 L 470.0 755.0 L 473.0 755.0 L 475.0 753.0 L 475.0 702.0 L 482.0 691.0 L 521.0 691.0 L 526.0 687.0 L 526.0 684.0 L 521.0 680.0 L 482.0 680.0 L 479.0 683.0 L 472.0 685.0 L 465.0 696.0 L 462.0 696.0 L 459.0 693.0 L 459.0 670.0 L 456.0 667.0 L 455.0 662.0 L 462.0 655.0 L 465.0 655.0 L 468.0 658.0 L 468.0 665.0 L 470.0 667.0 L 475.0 668.0 L 478.0 671.0 L 521.0 671.0 L 523.0 669.0 L 523.0 666.0 L 521.0 664.0 L 518.0 664.0 L 513.0 660.0 L 480.0 659.0 L 475.0 653.0 L 475.0 630.0 L 478.0 627.0 L 573.0 627.0 L 575.0 625.0 L 575.0 618.0 L 573.0 616.0 L 486.0 616.0 L 483.0 613.0 L 483.0 610.0 L 486.0 607.0 L 573.0 607.0 L 575.0 605.0 L 575.0 602.0 Z" fill-rule="evenodd"/>
  </g>
  <path d="M 2210.0 600.0 L 2207.0 603.0 L 2200.0 605.0 L 2195.0 611.0 L 2188.0 613.0 L 2185.0 616.0 L 2184.0 621.0 L 2180.0 626.0 L 2180.0 633.0 L 2176.0 638.0 L 2176.0 653.0 L 2180.0 658.0 L 2180.0 665.0 L 2192.0 678.0 L 2197.0 679.0 L 2200.0 682.0 L 2205.0 683.0 L 2210.0 687.0 L 2217.0 687.0 L 2222.0 691.0 L 2229.0 691.0 L 2232.0 694.0 L 2237.0 695.0 L 2240.0 698.0 L 2247.0 700.0 L 2252.0 706.0 L 2252.0 721.0 L 2249.0 724.0 L 2246.0 724.0 L 2241.0 728.0 L 2222.0 728.0 L 2217.0 724.0 L 2206.0 724.0 L 2204.0 723.0 L 2199.0 717.0 L 2192.0 715.0 L 2183.0 705.0 L 2178.0 704.0 L 2172.0 710.0 L 2172.0 721.0 L 2168.0 726.0 L 2168.0 733.0 L 2172.0 738.0 L 2177.0 739.0 L 2180.0 742.0 L 2187.0 744.0 L 2194.0 751.0 L 2201.0 751.0 L 2206.0 755.0 L 2217.0 755.0 L 2222.0 759.0 L 2241.0 759.0 L 2246.0 755.0 L 2257.0 755.0 L 2260.0 752.0 L 2265.0 751.0 L 2268.0 748.0 L 2275.0 746.0 L 2282.0 739.0 L 2283.0 734.0 L 2287.0 729.0 L 2287.0 722.0 L 2291.0 717.0 L 2291.0 702.0 L 2287.0 697.0 L 2286.0 688.0 L 2271.0 673.0 L 2266.0 672.0 L 2263.0 669.0 L 2258.0 668.0 L 2253.0 664.0 L 2246.0 664.0 L 2241.0 660.0 L 2230.0 660.0 L 2227.0 657.0 L 2222.0 656.0 L 2219.0 653.0 L 2219.0 650.0 L 2215.0 645.0 L 2215.0 638.0 L 2226.0 627.0 L 2249.0 627.0 L 2252.0 630.0 L 2257.0 631.0 L 2260.0 634.0 L 2265.0 635.0 L 2268.0 638.0 L 2273.0 639.0 L 2276.0 642.0 L 2279.0 642.0 L 2282.0 639.0 L 2283.0 634.0 L 2287.0 629.0 L 2287.0 614.0 L 2285.0 612.0 L 2280.0 611.0 L 2277.0 608.0 L 2272.0 607.0 L 2269.0 604.0 L 2262.0 604.0 L 2257.0 600.0 Z M 2014.0 600.0 L 2012.0 602.0 L 2011.0 607.0 L 2008.0 610.0 L 2008.0 749.0 L 2009.0 751.0 L 2014.0 755.0 L 2041.0 755.0 L 2043.0 753.0 L 2043.0 674.0 L 2046.0 671.0 L 2049.0 671.0 L 2059.0 680.0 L 2060.0 685.0 L 2063.0 688.0 L 2065.0 695.0 L 2071.0 700.0 L 2073.0 707.0 L 2079.0 712.0 L 2080.0 717.0 L 2083.0 720.0 L 2085.0 727.0 L 2091.0 732.0 L 2093.0 739.0 L 2099.0 744.0 L 2101.0 751.0 L 2106.0 755.0 L 2133.0 755.0 L 2135.0 753.0 L 2136.0 748.0 L 2139.0 745.0 L 2139.0 738.0 L 2135.0 733.0 L 2135.0 730.0 L 2139.0 725.0 L 2139.0 706.0 L 2135.0 701.0 L 2135.0 682.0 L 2139.0 677.0 L 2139.0 646.0 L 2135.0 641.0 L 2135.0 630.0 L 2138.0 627.0 L 2139.0 622.0 L 2135.0 617.0 L 2135.0 602.0 L 2133.0 600.0 L 2110.0 600.0 L 2104.0 606.0 L 2104.0 685.0 L 2101.0 688.0 L 2098.0 688.0 L 2095.0 685.0 L 2094.0 680.0 L 2084.0 671.0 L 2083.0 666.0 L 2080.0 663.0 L 2078.0 656.0 L 2072.0 651.0 L 2071.0 646.0 L 2068.0 643.0 L 2066.0 636.0 L 2060.0 631.0 L 2058.0 624.0 L 2052.0 619.0 L 2050.0 612.0 L 2044.0 607.0 L 2043.0 602.0 L 2041.0 600.0 Z M 1762.0 600.0 L 1761.0 601.0 L 1760.0 601.0 L 1760.0 602.0 L 1758.0 604.0 L 1757.0 604.0 L 1757.0 605.0 L 1756.0 606.0 L 1756.0 753.0 L 1758.0 755.0 L 1789.0 755.0 L 1791.0 753.0 L 1791.0 602.0 L 1789.0 600.0 Z M 1890.0 596.0 L 1885.0 600.0 L 1874.0 600.0 L 1872.0 601.0 L 1871.0 603.0 L 1869.0 604.0 L 1866.0 604.0 L 1864.0 605.0 L 1863.0 607.0 L 1856.0 609.0 L 1856.0 610.0 L 1854.0 612.0 L 1853.0 612.0 L 1852.0 614.0 L 1850.0 616.0 L 1849.0 616.0 L 1848.0 618.0 L 1846.0 620.0 L 1845.0 620.0 L 1844.0 622.0 L 1842.0 624.0 L 1841.0 624.0 L 1840.0 626.0 L 1838.0 628.0 L 1837.0 628.0 L 1834.0 632.0 L 1833.0 632.0 L 1832.0 634.0 L 1832.0 637.0 L 1828.0 642.0 L 1828.0 649.0 L 1824.0 654.0 L 1824.0 665.0 L 1820.0 670.0 L 1820.0 681.0 L 1824.0 686.0 L 1824.0 697.0 L 1828.0 702.0 L 1828.0 709.0 L 1829.0 711.0 L 1831.0 712.0 L 1832.0 714.0 L 1832.0 717.0 L 1833.0 719.0 L 1835.0 720.0 L 1837.0 727.0 L 1838.0 727.0 L 1840.0 729.0 L 1840.0 730.0 L 1842.0 731.0 L 1844.0 733.0 L 1844.0 734.0 L 1848.0 737.0 L 1848.0 738.0 L 1855.0 740.0 L 1856.0 742.0 L 1860.0 745.0 L 1860.0 746.0 L 1862.0 747.0 L 1865.0 747.0 L 1870.0 751.0 L 1877.0 751.0 L 1882.0 755.0 L 1921.0 755.0 L 1923.0 754.0 L 1924.0 752.0 L 1926.0 751.0 L 1929.0 751.0 L 1931.0 750.0 L 1932.0 748.0 L 1934.0 747.0 L 1937.0 747.0 L 1939.0 746.0 L 1940.0 744.0 L 1947.0 742.0 L 1947.0 741.0 L 1949.0 739.0 L 1950.0 739.0 L 1951.0 737.0 L 1953.0 735.0 L 1954.0 735.0 L 1955.0 733.0 L 1957.0 731.0 L 1958.0 731.0 L 1959.0 729.0 L 1961.0 727.0 L 1962.0 727.0 L 1965.0 723.0 L 1966.0 723.0 L 1967.0 721.0 L 1967.0 718.0 L 1968.0 716.0 L 1970.0 715.0 L 1971.0 713.0 L 1971.0 710.0 L 1975.0 705.0 L 1975.0 698.0 L 1979.0 693.0 L 1979.0 658.0 L 1975.0 653.0 L 1975.0 646.0 L 1974.0 644.0 L 1972.0 643.0 L 1970.0 636.0 L 1969.0 636.0 L 1967.0 634.0 L 1967.0 633.0 L 1964.0 631.0 L 1962.0 624.0 L 1961.0 624.0 L 1959.0 622.0 L 1959.0 621.0 L 1957.0 620.0 L 1955.0 618.0 L 1955.0 617.0 L 1951.0 614.0 L 1951.0 613.0 L 1944.0 611.0 L 1943.0 609.0 L 1939.0 606.0 L 1939.0 605.0 L 1937.0 604.0 L 1930.0 604.0 L 1925.0 600.0 L 1914.0 600.0 L 1909.0 596.0 Z M 1898.0 627.0 L 1905.0 627.0 L 1906.0 628.0 L 1907.0 628.0 L 1908.0 629.0 L 1908.0 630.0 L 1909.0 630.0 L 1910.0 631.0 L 1917.0 631.0 L 1918.0 632.0 L 1919.0 632.0 L 1920.0 633.0 L 1920.0 634.0 L 1921.0 634.0 L 1922.0 635.0 L 1925.0 635.0 L 1926.0 636.0 L 1927.0 636.0 L 1928.0 637.0 L 1928.0 638.0 L 1929.0 639.0 L 1930.0 639.0 L 1932.0 641.0 L 1932.0 642.0 L 1935.0 644.0 L 1935.0 645.0 L 1936.0 646.0 L 1936.0 649.0 L 1937.0 650.0 L 1937.0 651.0 L 1938.0 651.0 L 1940.0 654.0 L 1940.0 661.0 L 1941.0 662.0 L 1941.0 663.0 L 1942.0 663.0 L 1944.0 666.0 L 1944.0 689.0 L 1943.0 690.0 L 1943.0 691.0 L 1942.0 692.0 L 1941.0 692.0 L 1941.0 693.0 L 1940.0 694.0 L 1940.0 701.0 L 1939.0 702.0 L 1939.0 703.0 L 1938.0 704.0 L 1937.0 704.0 L 1936.0 705.0 L 1936.0 706.0 L 1934.0 708.0 L 1933.0 708.0 L 1932.0 709.0 L 1932.0 710.0 L 1930.0 712.0 L 1929.0 712.0 L 1928.0 713.0 L 1928.0 714.0 L 1926.0 716.0 L 1925.0 716.0 L 1923.0 719.0 L 1922.0 719.0 L 1921.0 720.0 L 1918.0 720.0 L 1917.0 721.0 L 1916.0 721.0 L 1916.0 722.0 L 1913.0 724.0 L 1890.0 724.0 L 1889.0 723.0 L 1888.0 723.0 L 1887.0 722.0 L 1887.0 721.0 L 1886.0 721.0 L 1885.0 720.0 L 1882.0 720.0 L 1881.0 719.0 L 1880.0 719.0 L 1879.0 718.0 L 1879.0 717.0 L 1878.0 716.0 L 1877.0 716.0 L 1875.0 714.0 L 1875.0 713.0 L 1874.0 712.0 L 1873.0 712.0 L 1871.0 710.0 L 1871.0 709.0 L 1870.0 708.0 L 1869.0 708.0 L 1867.0 706.0 L 1867.0 705.0 L 1864.0 703.0 L 1864.0 702.0 L 1863.0 701.0 L 1863.0 698.0 L 1862.0 697.0 L 1862.0 696.0 L 1861.0 696.0 L 1859.0 693.0 L 1859.0 658.0 L 1860.0 657.0 L 1860.0 656.0 L 1861.0 655.0 L 1862.0 655.0 L 1862.0 654.0 L 1863.0 653.0 L 1863.0 650.0 L 1864.0 649.0 L 1864.0 648.0 L 1865.0 647.0 L 1866.0 647.0 L 1867.0 646.0 L 1867.0 645.0 L 1869.0 643.0 L 1870.0 643.0 L 1871.0 642.0 L 1871.0 641.0 L 1873.0 639.0 L 1874.0 639.0 L 1876.0 636.0 L 1877.0 636.0 L 1878.0 635.0 L 1881.0 635.0 L 1882.0 634.0 L 1883.0 634.0 L 1883.0 633.0 L 1886.0 631.0 L 1893.0 631.0 L 1894.0 630.0 L 1895.0 630.0 L 1895.0 629.0 Z" fill="#F0241F" fill-rule="evenodd"/>
</svg>